<svg width="450.000000" height="543.913086" viewBox="0 0 450 543.913" fill="none" xmlns="http://www.w3.org/2000/svg" xmlns:xlink="http://www.w3.org/1999/xlink">
	<desc>
			Created with Pixso.
	</desc>
	<defs>
		<linearGradient x1="225.000000" y1="0.000000" x2="225.000000" y2="543.913025" id="paint_linear_36_3700_0" gradientUnits="userSpaceOnUse">
			<stop stop-color="#EB3349"/>
			<stop offset="1.000000" stop-color="#EC3939"/>
		</linearGradient>
	</defs>
	<path id="Subtract" d="M30.8152 14.6738C37.5686 14.6738 43.0435 9.19922 43.0435 2.4458C43.0435 1.17334 43.9885 0 45.2607 0L48.6521 0C49.9246 0 50.8696 1.17334 50.8696 2.4458C50.8696 9.19922 56.3442 14.6738 63.0979 14.6738C69.8513 14.6738 75.3262 9.19922 75.3262 2.4458C75.3262 1.17334 76.2712 0 77.5435 0L80.9348 0C82.207 0 83.1521 1.17334 83.1521 2.4458C83.1521 9.19922 88.627 14.6738 95.3804 14.6738C102.134 14.6738 107.609 9.19922 107.609 2.4458C107.609 1.17334 108.554 0 109.826 0L113.218 0C114.49 0 115.435 1.17334 115.435 2.4458C115.435 9.19922 120.91 14.6738 127.663 14.6738C134.417 14.6738 139.891 9.19922 139.891 2.4458C139.891 1.17334 140.836 0 142.109 0L145.5 0C146.772 0 147.717 1.17334 147.717 2.4458C147.717 9.19922 153.192 14.6738 159.946 14.6738C166.699 14.6738 172.174 9.19922 172.174 2.4458C172.174 1.17334 173.119 0 174.391 0L177.783 0C179.055 0 180 1.17334 180 2.4458C180 9.19922 185.475 14.6738 192.228 14.6738C198.982 14.6738 204.457 9.19922 204.457 2.4458C204.457 1.17334 205.402 0 206.674 0L210.065 0C211.338 0 212.283 1.17334 212.283 2.4458C212.283 9.19922 217.757 14.6738 224.511 14.6738C231.264 14.6738 236.739 9.19922 236.739 2.4458C236.739 1.17334 237.684 0 238.957 0L242.348 0C243.62 0 244.565 1.17334 244.565 2.4458C244.565 9.19922 250.04 14.6738 256.793 14.6738C263.547 14.6738 269.022 9.19922 269.022 2.4458C269.022 1.17334 269.967 0 271.239 0L274.63 0C275.903 0 276.848 1.17334 276.848 2.4458C276.848 9.19922 282.323 14.6738 289.076 14.6738C295.83 14.6738 301.304 9.19922 301.304 2.4458C301.304 1.17334 302.25 0 303.522 0L306.913 0C308.185 0 309.13 1.17334 309.13 2.4458C309.13 9.19922 314.605 14.6738 321.359 14.6738C328.112 14.6738 333.587 9.19922 333.587 2.4458C333.587 1.17334 334.532 0 335.804 0L339.196 0C340.468 0 341.413 1.17334 341.413 2.4458C341.413 9.19922 346.888 14.6738 353.641 14.6738C360.395 14.6738 365.87 9.19922 365.87 2.4458C365.87 1.17334 366.815 0 368.087 0L371.478 0C372.75 0 373.696 1.17334 373.696 2.4458C373.696 9.19922 379.17 14.6738 385.924 14.6738C392.677 14.6738 398.152 9.19922 398.152 2.4458C398.152 1.17334 399.097 0 400.37 0L403.761 0C405.033 0 405.978 1.17334 405.978 2.4458C405.978 9.19922 411.453 14.6738 418.207 14.6738C424.96 14.6738 430.435 9.19922 430.435 2.4458C430.435 1.17334 431.38 0 432.652 0L441.09 0C446.011 0 450 3.98926 450 8.90967L450 20.064C450 20.3311 449.778 20.5435 449.511 20.5435C442.757 20.5435 437.283 26.0181 437.283 32.772C437.283 39.5254 442.757 45 449.511 45C449.778 45 450 45.2124 450 45.4795L450 52.3462C450 52.6133 449.778 52.8262 449.511 52.8262C442.757 52.8262 437.283 58.3008 437.283 65.0542C437.283 71.8076 442.757 77.2827 449.511 77.2827C449.778 77.2827 450 77.4951 450 77.7622L450 84.6289C450 84.896 449.778 85.1089 449.511 85.1089C442.757 85.1089 437.283 90.5835 437.283 97.3369C437.283 104.09 442.757 109.565 449.511 109.565C449.778 109.565 450 109.778 450 110.045L450 116.912C450 117.179 449.778 117.391 449.511 117.391C442.757 117.391 437.283 122.866 437.283 129.62C437.283 136.373 442.757 141.848 449.511 141.848C449.778 141.848 450 142.061 450 142.328L450 149.194C450 149.461 449.778 149.674 449.511 149.674C442.757 149.674 437.283 155.149 437.283 161.902C437.283 168.656 442.757 174.13 449.511 174.13C449.778 174.13 450 174.343 450 174.61L450 181.477C450 181.744 449.778 181.957 449.511 181.957C442.757 181.957 437.283 187.431 437.283 194.185C437.283 200.938 442.757 206.413 449.511 206.413C449.778 206.413 450 206.625 450 206.893L450 213.759C450 214.026 449.778 214.239 449.511 214.239C442.757 214.239 437.283 219.714 437.283 226.467C437.283 233.221 442.757 238.696 449.511 238.696C449.778 238.696 450 238.908 450 239.175L450 246.042C450 246.309 449.778 246.521 449.511 246.521C442.757 246.521 437.283 251.997 437.283 258.75C437.283 265.503 442.757 270.978 449.511 270.978C449.778 270.978 450 271.191 450 271.458L450 278.325C450 278.592 449.778 278.804 449.511 278.804C442.757 278.804 437.283 284.279 437.283 291.033C437.283 297.786 442.757 303.261 449.511 303.261C449.778 303.261 450 303.474 450 303.741L450 310.607C450 310.875 449.778 311.087 449.511 311.087C442.757 311.087 437.283 316.562 437.283 323.315C437.283 330.069 442.757 335.543 449.511 335.543C449.778 335.543 450 335.756 450 336.023L450 342.89C450 343.157 449.778 343.37 449.511 343.37C442.757 343.37 437.283 348.844 437.283 355.598C437.283 362.351 442.757 367.826 449.511 367.826C449.778 367.826 450 368.039 450 368.306L450 375.172C450 375.439 449.778 375.652 449.511 375.652C442.757 375.652 437.283 381.127 437.283 387.88C437.283 394.634 442.757 400.109 449.511 400.109C449.778 400.109 450 400.321 450 400.588L450 407.455C450 407.722 449.778 407.935 449.511 407.935C442.757 407.935 437.283 413.41 437.283 420.163C437.283 426.917 442.757 432.391 449.511 432.391C449.778 432.391 450 432.604 450 432.871L450 439.738C450 440.005 449.778 440.217 449.511 440.217C442.757 440.217 437.283 445.692 437.283 452.446C437.283 459.199 442.757 464.674 449.511 464.674C449.778 464.674 450 464.887 450 465.154L450 472.021C450 472.288 449.778 472.5 449.511 472.5C442.757 472.5 437.283 477.975 437.283 484.728C437.283 491.482 442.757 496.957 449.511 496.957C449.778 496.957 450 497.169 450 497.436L450 504.303C450 504.57 449.778 504.783 449.511 504.783C442.757 504.783 437.283 510.257 437.283 517.011C437.283 523.764 442.757 529.239 449.511 529.239C449.778 529.239 450 529.452 450 529.719L450 536.716C450 540.691 446.778 543.913 442.803 543.913L432.652 543.913C431.38 543.913 430.435 542.74 430.435 541.467C430.435 534.714 424.96 529.239 418.207 529.239C411.453 529.239 405.978 534.714 405.978 541.467C405.978 542.74 405.033 543.913 403.761 543.913L400.369 543.913C399.097 543.913 398.152 542.74 398.152 541.467C398.152 534.714 392.677 529.239 385.924 529.239C379.17 529.239 373.696 534.714 373.696 541.467C373.696 542.74 372.751 543.913 371.479 543.913L368.087 543.913C366.814 543.913 365.87 542.74 365.87 541.467C365.87 534.714 360.395 529.239 353.641 529.239C346.888 529.239 341.413 534.714 341.413 541.467C341.413 542.74 340.468 543.913 339.196 543.913L335.804 543.913C334.532 543.913 333.587 542.74 333.587 541.467C333.587 534.714 328.112 529.239 321.359 529.239C314.605 529.239 309.13 534.714 309.13 541.467C309.13 542.74 308.186 543.913 306.913 543.913L303.521 543.913C302.249 543.913 301.304 542.74 301.304 541.467C301.304 534.714 295.83 529.239 289.076 529.239C282.323 529.239 276.848 534.714 276.848 541.467C276.848 542.74 275.903 543.913 274.631 543.913L271.239 543.913C269.967 543.913 269.022 542.74 269.022 541.467C269.022 534.714 263.547 529.239 256.793 529.239C250.04 529.239 244.565 534.714 244.565 541.467C244.565 542.74 243.62 543.913 242.348 543.913L238.956 543.913C237.684 543.913 236.739 542.74 236.739 541.467C236.739 534.714 231.264 529.239 224.511 529.239C217.757 529.239 212.283 534.714 212.283 541.467C212.283 542.74 211.338 543.913 210.065 543.913L206.674 543.913C205.402 543.913 204.457 542.74 204.457 541.467C204.457 534.714 198.982 529.239 192.228 529.239C185.475 529.239 180 534.714 180 541.467C180 542.74 179.055 543.913 177.783 543.913L174.391 543.913C173.119 543.913 172.174 542.74 172.174 541.467C172.174 534.714 166.699 529.239 159.946 529.239C153.192 529.239 147.717 534.714 147.717 541.467C147.717 542.74 146.772 543.913 145.5 543.913L142.108 543.913C140.836 543.913 139.891 542.74 139.891 541.467C139.891 534.714 134.417 529.239 127.663 529.239C120.91 529.239 115.435 534.714 115.435 541.467C115.435 542.74 114.49 543.913 113.218 543.913L109.826 543.913C108.554 543.913 107.609 542.74 107.609 541.467C107.609 534.714 102.134 529.239 95.3804 529.239C88.627 529.239 83.1521 534.714 83.1521 541.467C83.1521 542.74 82.2073 543.913 80.9351 543.913L77.5432 543.913C76.271 543.913 75.3262 542.74 75.3262 541.467C75.3262 534.714 69.8513 529.239 63.0979 529.239C56.3442 529.239 50.8696 534.714 50.8696 541.467C50.8696 542.74 49.9246 543.913 48.6523 543.913L45.2607 543.913C43.9885 543.913 43.0435 542.74 43.0435 541.467C43.0435 534.714 37.5686 529.239 30.8152 529.239C24.0618 529.239 18.5869 534.714 18.5869 541.467C18.5869 542.74 17.6421 543.913 16.3699 543.913L8.46973 543.913C3.79199 543.913 0 540.121 0 535.443L0 528.521C0 527.25 1.17334 526.304 2.44556 526.304C9.19922 526.304 14.6738 520.83 14.6738 514.076C14.6738 507.323 9.19922 501.848 2.44556 501.848C1.17334 501.848 0 500.903 0 499.63L0 496.239C0 494.966 1.17334 494.021 2.44556 494.021C9.19897 494.021 14.6738 488.547 14.6738 481.793C14.6738 475.04 9.19897 469.565 2.44556 469.565C1.17334 469.565 0 468.62 0 467.348L0 463.957C0 462.684 1.17334 461.739 2.44556 461.739C9.19922 461.739 14.6738 456.264 14.6738 449.511C14.6738 442.757 9.19922 437.283 2.44556 437.283C1.17334 437.283 0 436.337 0 435.065L0 431.674C0 430.401 1.17334 429.457 2.44556 429.457C9.19922 429.457 14.6738 423.982 14.6738 417.228C14.6738 410.475 9.19922 405 2.44556 405C1.17334 405 0 404.055 0 402.783L0 399.391C0 398.119 1.17334 397.174 2.44556 397.174C9.19922 397.174 14.6738 391.699 14.6738 384.946C14.6738 378.192 9.19922 372.717 2.44556 372.717C1.17334 372.717 0 371.772 0 370.5L0 367.109C0 365.836 1.17334 364.891 2.44556 364.891C9.19922 364.891 14.6738 359.417 14.6738 352.663C14.6738 345.91 9.19922 340.435 2.44556 340.435C1.17334 340.435 0 339.49 0 338.217L0 334.826C0 333.554 1.17334 332.609 2.44556 332.609C9.19922 332.609 14.6738 327.134 14.6738 320.38C14.6738 313.627 9.19922 308.152 2.44556 308.152C1.17334 308.152 0 307.207 0 305.935L0 302.543C0 301.271 1.17334 300.326 2.44556 300.326C9.19922 300.326 14.6738 294.851 14.6738 288.098C14.6738 281.344 9.19922 275.87 2.44556 275.87C1.17334 275.87 0 274.924 0 273.652L0 270.261C0 268.989 1.17334 268.043 2.44556 268.043C9.19922 268.043 14.6738 262.569 14.6738 255.815C14.6738 249.062 9.19922 243.587 2.44556 243.587C1.17334 243.587 0 242.642 0 241.37L0 237.978C0 236.706 1.17334 235.761 2.44556 235.761C9.19922 235.761 14.6738 230.286 14.6738 223.533C14.6738 216.779 9.19922 211.304 2.44556 211.304C1.17334 211.304 0 210.359 0 209.087L0 205.696C0 204.423 1.17334 203.478 2.44556 203.478C9.19922 203.478 14.6738 198.003 14.6738 191.25C14.6738 184.497 9.19922 179.022 2.44556 179.022C1.17334 179.022 0 178.077 0 176.804L0 173.413C0 172.141 1.17334 171.196 2.44556 171.196C9.19922 171.196 14.6738 165.721 14.6738 158.967C14.6738 152.214 9.19922 146.739 2.44556 146.739C1.17334 146.739 0 145.794 0 144.522L0 141.13C0 139.858 1.17334 138.913 2.44556 138.913C9.19922 138.913 14.6738 133.438 14.6738 126.685C14.6738 119.931 9.19922 114.457 2.44556 114.457C1.17334 114.457 0 113.511 0 112.239L0 108.848C0 107.576 1.17334 106.63 2.44556 106.63C9.19922 106.63 14.6738 101.156 14.6738 94.4023C14.6738 87.6489 9.19922 82.1738 2.44556 82.1738C1.17334 82.1738 0 81.229 0 79.9565L0 76.5649C0 75.293 1.17334 74.3477 2.44556 74.3477C9.19922 74.3477 14.6738 68.873 14.6738 62.1196C14.6738 55.3662 9.19922 49.8911 2.44556 49.8911C1.17334 49.8911 0 48.9463 0 47.6738L0 44.2827C0 43.0103 1.17334 42.0654 2.44556 42.0654C9.19922 42.0654 14.6738 36.5903 14.6738 29.8369C14.6738 23.0835 9.19922 17.6089 2.44556 17.6089C1.17334 17.6089 0 16.6636 0 15.3911L0 8.02979C0 3.59521 3.59497 0 8.02979 0L16.3696 0C17.6418 0 18.5869 1.17334 18.5869 2.4458C18.5869 9.19922 24.0618 14.6738 30.8152 14.6738Z" clip-rule="evenodd" fill="url(#paint_linear_36_3700_0)" fill-opacity="1.000000" fill-rule="evenodd"/>
</svg>
