<svg width="1844.485107" height="230.501953" viewBox="0 0 1844.49 230.502" fill="none" xmlns="http://www.w3.org/2000/svg" xmlns:xlink="http://www.w3.org/1999/xlink">
	<desc>
			Created with Pixso.
	</desc>
	<defs/>
	<path id="Vector 5" d="M36.74 227.16L36.74 163.33C36.74 158.91 40.32 155.33 44.74 155.33L67.16 155.33C71.58 155.33 75.16 158.91 75.16 163.33L75.16 177.4C75.16 181.82 71.58 185.4 67.16 185.4L55.12 185.4" stroke="#EC3939" stroke-opacity="1.000000" stroke-width="6.681199" stroke-linecap="round"/>
	<path id="Vector 4" d="M162.93 53.99L162.93 70.78C162.93 75.19 159.35 78.78 154.93 78.78L139.95 78.78C135.53 78.78 131.95 75.19 131.95 70.78L131.95 51.14C131.95 46.73 135.53 43.14 139.95 43.14L263.63 43.14M311.66 43.14L1710.34 43.14C1714.76 43.14 1718.34 46.73 1718.34 51.14L1718.34 69.23C1718.34 73.65 1714.76 77.23 1710.34 77.23L1696.91 77.23C1692.49 77.23 1688.91 73.65 1688.91 69.23L1688.91 55.54" stroke="#EC3939" stroke-opacity="1.000000" stroke-width="6.196824" stroke-linecap="round"/>
	<path id="Vector 2" d="M6.68 227.16L8.26 89.75C8.31 85.37 11.87 81.84 16.26 81.84L92.21 81.84C96.63 81.84 100.21 78.26 100.21 73.84L100.21 48.08C100.21 43.66 96.63 40.08 92.21 40.08L56.79 40.08" stroke="#EC3939" stroke-opacity="1.000000" stroke-width="6.681199" stroke-linecap="round"/>
	<path id="Vector 3" d="M21.71 40.08L11.34 40.08C6.92 40.08 3.34 36.5 3.34 32.08L3.34 11.34C3.34 6.92 6.92 3.34 11.34 3.34L30.41 3.34C34.83 3.34 38.41 6.92 38.41 11.34L38.41 110.59C38.41 115.01 41.99 118.59 46.41 118.59L60.48 118.59C64.9 118.59 68.48 115.01 68.48 110.59L68.48 21.36C68.48 16.94 72.06 13.36 76.48 13.36L1752.14 13.36" stroke="#EC3939" stroke-opacity="1.000000" stroke-width="6.681199" stroke-linecap="round"/>
	<path id="Vector 6" d="M1807.74 227.16L1807.74 163.33C1807.74 158.91 1804.16 155.33 1799.74 155.33L1777.32 155.33C1772.9 155.33 1769.32 158.91 1769.32 163.33L1769.32 177.4C1769.32 181.82 1772.9 185.4 1777.32 185.4L1789.37 185.4" stroke="#EC3939" stroke-opacity="1.000000" stroke-width="6.681199" stroke-linecap="round"/>
	<path id="Vector 7" d="M1837.8 227.16L1836.22 89.75C1836.17 85.37 1832.61 81.84 1828.23 81.84L1752.27 81.84C1747.85 81.84 1744.27 78.26 1744.27 73.84L1744.27 48.08C1744.27 43.66 1747.85 40.08 1752.27 40.08L1787.7 40.08" stroke="#EC3939" stroke-opacity="1.000000" stroke-width="6.681199" stroke-linecap="round"/>
	<path id="Vector 8" d="M1822.77 40.08L1833.14 40.08C1837.56 40.08 1841.14 36.5 1841.14 32.08L1841.14 11.34C1841.14 6.92 1837.56 3.34 1833.14 3.34L1814.07 3.34C1809.65 3.34 1806.07 6.92 1806.07 11.34L1806.07 110.59C1806.07 115.01 1802.49 118.59 1798.07 118.59L1784 118.59C1779.58 118.59 1776 115.01 1776 110.59L1776 21.36C1776 16.94 1772.42 13.36 1768 13.36L92.34 13.36" stroke="#EC3939" stroke-opacity="1.000000" stroke-width="6.681199" stroke-linecap="round"/>
</svg>
