<svg width="24.000000" height="24.000000" viewBox="0 0 24 24" fill="none" xmlns="http://www.w3.org/2000/svg" xmlns:xlink="http://www.w3.org/1999/xlink">
	<desc>
			Created with Pixso.
	</desc>
	<defs/>
	<path id="Rectangle 38" d="M7 14C6.06 14 5.6 14 5.23 13.84C4.74 13.64 4.35 13.25 4.15 12.76C4 12.39 4 11.93 4 11L4 7.95C4 6.11 4 5.18 4.56 4.6C4.57 4.59 4.59 4.57 4.6 4.56C5.18 4 6.11 4 7.95 4L11 4C11.93 4 12.39 4 12.76 4.15C13.25 4.35 13.64 4.74 13.84 5.23C14 5.6 14 6.06 14 7" stroke="#FFFFFF" stroke-opacity="1.000000" stroke-width="2.000000"/>
	<rect id="Rectangle 39" x="10.000000" y="10.000000" rx="2.000000" width="10.000000" height="10.000000" stroke="#FFFFFF" stroke-opacity="1.000000" stroke-width="2.000000"/>
</svg>
