<svg width="60.000000" height="122.000000" viewBox="0 0 60 122" fill="none" xmlns="http://www.w3.org/2000/svg" xmlns:xlink="http://www.w3.org/1999/xlink">
	<desc>
			Created with Pixso.
	</desc>
	<defs/>
	<path id="奇吉" d="M9.1 30.9L9.1 56.56L13.69 56.56L13.69 30.9L23.18 30.9L23.18 52.48L27.83 52.48L27.83 3.3L23.18 3.3L23.18 25.78L13.69 25.78L13.69 0L9.1 0L9.1 25.78L0 25.78L0 30.9L9.1 30.9ZM35.19 6.8L35.19 48.98L60 48.98L60 43.99L56.89 43.99L56.89 12.05L60 12.05L60 6.8L35.19 6.8ZM52.37 12.05L39.59 12.05L39.59 43.99L52.37 43.99L52.37 12.05ZM25.57 63.81L25.57 122L30.03 122L30.03 77.74L53.54 77.74C54.57 77.74 54.83 78.13 54.96 79.43C54.96 79.62 54.96 79.9 54.96 80.24C54.97 82.13 54.99 86.06 54.83 90.18C56.18 89.47 58.12 88.69 59.48 88.37C59.48 82.34 59.41 78.33 58.7 75.86C57.93 73.53 56.51 72.82 53.6 72.82L30.03 72.82L30.03 63.81L25.57 63.81ZM6.07 95.77L6.07 118.69L10.33 118.69L10.33 97.22C16.3 100.06 19.6 106.09 21.31 119.79C22.21 119.02 24.02 117.91 25.18 117.59C23.48 105.33 20.41 98.54 15.43 94.69C18.32 86.48 22.33 76.98 24.99 71.52L21.5 68.02C18.81 73.93 14.6 84.2 11.75 92.49C11.29 92.28 10.81 92.09 10.33 91.91L10.33 66.99L6.07 66.99L6.07 90.69C4.2 90.3 2.18 90.01 0 89.79L0 94.85C2.22 95.06 4.24 95.34 6.07 95.77ZM35.26 110.66L35.26 115.32L56.25 115.32L56.25 110.66L51.99 110.66L51.99 89.41L35.26 89.41L35.26 110.66ZM39.2 110.66L48.05 110.66L48.05 94.01L39.2 94.01L39.2 110.66Z" fill="#FFFFFF" fill-opacity="1.000000" fill-rule="evenodd"/>
</svg>
